<svg width="2739" height="589" viewBox="0 0 2739 589" fill="none" xmlns="http://www.w3.org/2000/svg">
<path d="M1831.18 403.213H1631.17V178H1831.18V234.808H1694.37V261.699H1826.13V318.17H1694.37V346.406H1831.18V403.213Z" fill="black"/>
<path d="M1521.32 403.213H1430.57L1340.15 178H1416.45L1474.6 339.347H1478.97L1535.78 178H1611.75L1521.32 403.213Z" fill="black"/>
<path d="M1315.44 403.213H1252.24V178H1315.44V403.213Z" fill="black"/>
<path d="M1062.28 406.573H999.088V181.36H1062.28V265.059H1167.16V181.36H1230.35V406.573H1167.16V364.221V321.867H1062.28V406.573Z" fill="black"/>
<path d="M824.144 406.573H760.95V181.36H885.659C939.105 181.36 972.718 211.949 972.718 265.395C972.718 318.841 939.105 349.766 885.659 349.766H824.144V406.573ZM878.599 238.168H824.144V292.958H878.599C900.785 292.958 909.86 288.589 909.86 265.395C909.86 242.538 900.785 238.168 878.599 238.168Z" fill="black"/>
<path d="M591.28 406.573H528.086V181.36H652.793C706.241 181.36 739.854 211.949 739.854 265.395C739.854 318.841 706.241 349.766 652.793 349.766H591.28V406.573ZM645.735 238.168H591.28V292.958H645.735C667.921 292.958 676.996 288.589 676.996 265.395C676.996 242.538 667.921 238.168 645.735 238.168Z" fill="black"/>
<path d="M294.007 406.573H223.083L320.226 181.36H410.648L508.127 406.573H435.522L418.378 364.892L362.916 238.504L294.007 406.573Z" fill="black"/>
<path d="M119.287 409.936C50.3788 409.936 8.36139 385.398 8.36139 328.254V326.237H71.5556V333.296C71.5556 348.422 76.9338 352.456 119.287 352.456C157.607 352.456 161.641 349.431 161.641 339.347C161.641 331.279 157.271 327.918 138.783 325.565L68.1941 316.153C26.1768 310.439 5 287.917 5 251.614C5 215.648 32.8995 178 114.245 178C185.843 178 220.129 209.261 220.129 259.682V261.699H156.935V256.657C156.935 240.522 149.876 235.144 107.522 235.144C75.2531 235.144 68.1941 239.513 68.1941 249.261C68.1941 256.32 72.2279 259.682 84.3289 261.362L154.918 271.783C210.045 279.85 224.836 308.086 224.836 336.994C224.836 375.649 195.255 409.936 119.287 409.936Z" fill="black"/>
<path d="M2022.29 406.82H1930.08V373.692H2022.29C2040.05 373.692 2054.5 371.074 2065.66 365.837C2077.05 360.373 2085.47 351.721 2090.93 339.881C2096.4 327.814 2099.13 311.99 2099.13 292.41C2099.13 272.602 2096.4 256.778 2090.93 244.938C2085.47 233.099 2077.05 224.561 2065.66 219.324C2054.5 213.86 2040.05 211.128 2022.29 211.128H1930.08V178H2022.29C2046.19 178 2066.69 182.667 2083.76 192.002C2101.07 201.11 2114.38 214.201 2123.72 231.277C2133.28 248.354 2138.06 268.731 2138.06 292.41C2138.06 316.089 2133.28 336.466 2123.72 353.542C2114.38 370.618 2101.07 383.824 2083.76 393.159C2066.69 402.266 2046.19 406.82 2022.29 406.82ZM1954.67 406.82H1918.12V178H1954.67V406.82Z" fill="black"/>
<path d="M2252.29 410.235C2233.62 410.235 2217.12 406.592 2202.77 399.306C2188.66 391.793 2177.61 381.433 2169.64 368.228C2161.9 354.795 2158.03 339.426 2158.03 322.122C2158.03 304.363 2161.9 288.881 2169.64 275.675C2177.61 262.47 2188.66 252.224 2202.77 244.938C2217.12 237.425 2233.62 233.668 2252.29 233.668C2271.42 233.668 2288.04 237.425 2302.15 244.938C2316.27 252.224 2327.2 262.47 2334.94 275.675C2342.91 288.881 2346.89 304.363 2346.89 322.122C2346.89 339.426 2342.91 354.795 2334.94 368.228C2327.2 381.433 2316.27 391.793 2302.15 399.306C2288.04 406.592 2271.42 410.235 2252.29 410.235ZM2252.29 377.449C2273.01 377.449 2287.92 372.781 2297.03 363.446C2306.14 353.884 2310.69 340.109 2310.69 322.122C2310.69 304.135 2306.14 290.361 2297.03 280.798C2287.92 271.008 2273.01 266.113 2252.29 266.113C2231.8 266.113 2217 271.008 2207.89 280.798C2198.79 290.361 2194.23 304.135 2194.23 322.122C2194.23 340.109 2198.79 353.884 2207.89 363.446C2217 372.781 2231.8 377.449 2252.29 377.449Z" fill="black"/>
<path d="M2459.38 410.235C2440.71 410.235 2424.43 406.592 2410.54 399.306C2396.66 391.793 2385.84 381.433 2378.1 368.228C2370.59 354.795 2366.83 339.426 2366.83 322.122C2366.83 304.363 2370.59 288.881 2378.1 275.675C2385.84 262.47 2396.66 252.224 2410.54 244.938C2424.43 237.425 2440.71 233.668 2459.38 233.668C2476.46 233.668 2491.6 236.628 2504.8 242.548C2518.01 248.467 2528.37 256.778 2535.88 267.479C2543.62 277.952 2547.5 290.361 2547.5 304.705V308.12H2510.95V306.071C2510.95 292.865 2506.4 283.075 2497.29 276.7C2488.18 270.097 2475.32 266.796 2458.7 266.796C2439.57 266.796 2425.57 271.463 2416.69 280.798C2407.81 289.905 2403.37 303.68 2403.37 322.122C2403.37 340.337 2407.81 354.111 2416.69 363.446C2425.57 372.554 2439.57 377.107 2458.7 377.107C2475.32 377.107 2488.18 373.92 2497.29 367.545C2506.4 360.942 2510.95 351.038 2510.95 337.832V335.442H2547.5V339.198C2547.5 353.315 2543.62 365.723 2535.88 376.424C2528.37 387.125 2518.01 395.436 2504.8 401.355C2491.6 407.275 2476.46 410.235 2459.38 410.235Z" fill="black"/>
<path d="M2655.03 410.235C2627.71 410.235 2606.53 404.998 2591.51 394.525C2576.71 384.052 2569.31 369.025 2569.31 349.444V348.419H2606.19V351.152C2606.19 362.308 2609.83 370.049 2617.12 374.375C2624.63 378.473 2637.27 380.523 2655.03 380.523C2671.65 380.523 2682.92 378.815 2688.84 375.4C2694.99 371.757 2698.06 366.179 2698.06 358.665C2698.06 351.607 2695.67 346.598 2690.89 343.638C2686.34 340.678 2677.91 338.401 2665.62 336.808L2619.17 330.66C2603 328.611 2590.37 324.058 2581.26 316.999C2572.15 309.714 2567.6 298.899 2567.6 284.555C2567.6 274.537 2570.56 265.771 2576.48 258.258C2582.4 250.516 2591.28 244.483 2603.12 240.157C2614.96 235.831 2629.53 233.668 2646.83 233.668C2664.14 233.668 2678.94 235.945 2691.23 240.499C2703.75 245.052 2713.32 251.883 2719.92 260.99C2726.75 270.097 2730.16 281.367 2730.16 294.801V295.825H2693.62V293.776C2693.62 287.173 2692.26 281.595 2689.52 277.041C2686.79 272.488 2681.9 269.073 2674.84 266.796C2668.01 264.291 2658.33 263.039 2645.81 263.039C2630.1 263.039 2619.17 264.86 2613.02 268.503C2606.87 272.146 2603.8 277.952 2603.8 285.921C2603.8 292.524 2606.08 297.305 2610.63 300.265C2615.18 303.225 2623.72 305.615 2636.25 307.437L2675.52 312.901C2695.56 315.406 2710.36 320.301 2719.92 327.587C2729.48 334.872 2734.26 345.573 2734.26 359.69C2734.26 370.163 2730.96 379.27 2724.36 387.011C2717.76 394.525 2708.53 400.331 2696.69 404.429C2684.86 408.3 2670.97 410.235 2655.03 410.235Z" fill="black"/>
</svg>
